<svg width="768" height="1100" viewBox="0 0 768 1100" fill="none" xmlns="http://www.w3.org/2000/svg">
<path opacity="0.0946098" d="M188 226.735V185.404C188 182.837 186.64 180.47 184.427 179.195L148.772 158.53C146.56 157.256 143.839 157.256 141.627 158.53L105.972 179.195C103.759 180.47 102.399 182.855 102.399 185.404V226.735C102.399 229.302 103.759 231.669 105.972 232.943L141.627 253.609C143.839 254.883 146.56 254.883 148.772 253.609L184.427 232.943C186.622 231.669 188 229.284 188 226.735Z" fill="url(#paint0_linear_773_3)"/>
<path opacity="0.0946098" d="M82.283 257.922V277.488C82.283 278.706 82.9333 279.815 83.9631 280.434L100.8 290.216C101.848 290.817 103.131 290.817 104.178 290.216L121.015 280.434C122.063 279.833 122.696 278.706 122.696 277.488V257.922C122.696 256.704 122.045 255.594 121.015 254.976L104.178 245.193C103.131 244.593 101.848 244.593 100.8 245.193L83.9631 254.976C82.9333 255.576 82.283 256.704 82.283 257.922Z" fill="url(#paint1_linear_773_3)"/>
<path opacity="0.0946098" d="M132.713 142.244V57.2471C132.713 51.9813 129.899 47.0969 125.342 44.464L51.737 1.97466C47.1617 -0.658222 41.5333 -0.658222 36.9761 1.97466L-36.6286 44.464C-41.1858 47.115 -44 51.9813 -44 57.2471V142.244C-44 147.51 -41.1858 152.394 -36.6286 155.027L36.9761 197.516C41.5333 200.149 47.1617 200.149 51.737 197.516L125.342 155.027C129.899 152.394 132.713 147.51 132.713 142.244Z" fill="url(#paint2_linear_773_3)"/>
<path opacity="0.0946098" d="M791 1035.73V994.404C791 991.837 789.64 989.47 787.427 988.195L751.772 967.53C749.56 966.256 746.839 966.256 744.627 967.53L708.972 988.195C706.759 989.47 705.399 991.855 705.399 994.404V1035.73C705.399 1038.3 706.759 1040.67 708.972 1041.94L744.627 1062.61C746.839 1063.88 749.56 1063.88 751.772 1062.61L787.427 1041.94C789.622 1040.67 791 1038.28 791 1035.73Z" fill="url(#paint3_linear_773_3)"/>
<path opacity="0.0946098" d="M685.283 1066.92V1086.49C685.283 1087.71 685.933 1088.82 686.963 1089.43L703.8 1099.22C704.848 1099.82 706.131 1099.82 707.178 1099.22L724.015 1089.43C725.063 1088.83 725.696 1087.71 725.696 1086.49V1066.92C725.696 1065.7 725.045 1064.59 724.015 1063.98L707.178 1054.19C706.131 1053.59 704.848 1053.59 703.8 1054.19L686.963 1063.98C685.933 1064.58 685.283 1065.7 685.283 1066.92Z" fill="url(#paint4_linear_773_3)"/>
<path opacity="0.0946098" d="M735.713 951.244V866.247C735.713 860.981 732.899 856.097 728.342 853.464L654.737 810.975C650.162 808.342 644.533 808.342 639.976 810.975L566.371 853.464C561.814 856.115 559 860.981 559 866.247V951.244C559 956.51 561.814 961.394 566.371 964.027L639.976 1006.52C644.533 1009.15 650.162 1009.15 654.737 1006.52L728.342 964.027C732.899 961.394 735.713 956.51 735.713 951.244Z" fill="url(#paint5_linear_773_3)"/>
<defs>
<linearGradient id="paint0_linear_773_3" x1="145.182" y1="157.542" x2="145.182" y2="254.573" gradientUnits="userSpaceOnUse">
<stop stop-color="#D4145A"/>
<stop offset="1" stop-color="#2E3192"/>
</linearGradient>
<linearGradient id="paint1_linear_773_3" x1="102.495" y1="290.666" x2="102.495" y2="244.736" gradientUnits="userSpaceOnUse">
<stop stop-color="#D4145A"/>
<stop offset="1" stop-color="#2E3192"/>
</linearGradient>
<linearGradient id="paint2_linear_773_3" x1="44.3529" y1="0.00230605" x2="44.3529" y2="199.498" gradientUnits="userSpaceOnUse">
<stop stop-color="#D4145A"/>
<stop offset="1" stop-color="#2E3192"/>
</linearGradient>
<linearGradient id="paint3_linear_773_3" x1="748.182" y1="966.542" x2="748.182" y2="1063.57" gradientUnits="userSpaceOnUse">
<stop stop-color="#D4145A"/>
<stop offset="1" stop-color="#2E3192"/>
</linearGradient>
<linearGradient id="paint4_linear_773_3" x1="705.495" y1="1099.67" x2="705.495" y2="1053.74" gradientUnits="userSpaceOnUse">
<stop stop-color="#D4145A"/>
<stop offset="1" stop-color="#2E3192"/>
</linearGradient>
<linearGradient id="paint5_linear_773_3" x1="647.353" y1="809.002" x2="647.353" y2="1008.5" gradientUnits="userSpaceOnUse">
<stop stop-color="#D4145A"/>
<stop offset="1" stop-color="#2E3192"/>
</linearGradient>
</defs>
</svg>
